# xmcd
#
# Track frame offsets:
#	151
#	14981
#	35134
#	49988
#	67795
#	82512
#	98715
#	117749
#	134655
#	149131
#	165743
#	181222
#
# Disc length: 2641 seconds
#
# Revision: 1
# Processed by: cddbd v1.5.2PL0 Copyright (c) Steve Scherf et al.
# Submitted via: EasyCDDAExtractor 12.0.7.1
#
DISCID=b10a4f0c
DTITLE=ดา เอ็นโดฟิน - แสนแสบ
DYEAR=2553
DGENRE=
TTITLE0=แสบ
TTITLE1=จุดเริ่มต้นของจุดจบ
TTITLE2=ขอบใจแต่ไม่เอา
TTITLE3=เรื่องน่าเบื่อ
TTITLE4=จะรักก็รัก
TTITLE5=คำท้า
TTITLE6=ครั้งหนึ่งเราเคยรักกัน
TTITLE7=หากไม่มีวันพรุ่งนี้
TTITLE8=move turn around
TTITLE9=อดีตของฉัน ปัจจุบันของเรา
TTITLE10=หญิงไทย
TTITLE11=อยากได้ยินว่ารัก
EXTD=
EXTT0=
EXTT1=
EXTT2=
EXTT3=
EXTT4=
EXTT5=
EXTT6=
EXTT7=
EXTT8=
EXTT9=
EXTT10=
EXTT11=
PLAYORDER=
